<svg width="1000" height="346" viewBox="0 0 1000 346" fill="none" xmlns="http://www.w3.org/2000/svg">
<path fill-rule="evenodd" clip-rule="evenodd" d="M0 259.5L28 209.042C56 158.583 111 57.6667 167 57.6667C222 57.6667 278 158.583 333 223.458C389 288.333 444 317.167 500 281.125C556 245.083 611 144.167 667 86.5C722 28.8333 778 14.4167 833 7.20833C889 0 944 0 972 0H1000V346H972C944 346 889 346 833 346C778 346 722 346 667 346C611 346 556 346 500 346C444 346 389 346 333 346C278 346 222 346 167 346C111 346 56 346 28 346H0V259.5Z" fill="#8B8F58" fill-opacity="0.7"/>
</svg>
