<svg width="1000" height="532" viewBox="0 0 1000 532" fill="none" xmlns="http://www.w3.org/2000/svg">
<path fill-rule="evenodd" clip-rule="evenodd" d="M0 456.951L14 381.901C28 306.852 56 156.753 83 81.7035C111 6.65404 139 6.65404 167 44.1788C194 81.7035 222 156.753 250 219.294C278 281.835 306 331.868 333 319.36C361 306.852 389 231.802 417 206.786C444 181.769 472 206.786 500 206.786C528 206.786 556 181.769 583 231.802C611 281.835 639 406.918 667 419.426C694 431.934 722 331.868 750 256.819C778 181.769 806 131.736 833 81.7035C861 31.6705 889 -18.3624 917 6.65404C944 31.6705 972 131.736 986 181.769L1000 231.802V532H986C972 532 944 532 917 532C889 532 861 532 833 532C806 532 778 532 750 532C722 532 694 532 667 532C639 532 611 532 583 532C556 532 528 532 500 532C472 532 444 532 417 532C389 532 361 532 333 532C306 532 278 532 250 532C222 532 194 532 167 532C139 532 111 532 83 532C56 532 28 532 14 532H0V456.951Z" fill="#DBA464" fill-opacity="0.9"/>
</svg>
